<svg width="799" height="690" viewBox="0 0 799 690" fill="none" xmlns="http://www.w3.org/2000/svg">
<g id="undraw_Dev_focus_re_6iwt 1" clip-path="url(#clip0_1:49)">
<g id="Smoke">
<path id="Vector" d="M603.503 549.475C601.315 529.811 600.737 509.888 601.779 490.058L603.503 457.238C594.006 482.456 596.152 515.646 603.503 549.475V549.475Z" fill="#CACACA"/>
<path id="Vector_2" d="M610.908 554.965C609.855 543.232 609.577 531.397 610.079 519.598L610.908 500.062C606.339 515.073 607.371 534.829 610.908 554.965Z" fill="#CACACA"/>
</g>
<path id="Vector_3" d="M643.825 579.125V590.106C643.821 590.978 643.56 591.813 643.098 592.43C642.636 593.047 642.01 593.396 641.356 593.4H637.242C637.134 593.4 637.027 593.428 636.927 593.483C636.827 593.538 636.736 593.618 636.659 593.72C636.583 593.823 636.522 593.944 636.481 594.077C636.44 594.211 636.419 594.354 636.419 594.498V684.539C636.416 685.411 636.155 686.247 635.693 686.863C635.23 687.48 634.604 687.829 633.951 687.833H583.759C583.104 687.833 582.477 687.485 582.014 686.868C581.551 686.25 581.291 685.412 581.29 684.539V594.498C581.29 594.207 581.203 593.928 581.049 593.723C580.895 593.517 580.686 593.401 580.468 593.4H575.531C574.876 593.399 574.249 593.052 573.786 592.434C573.323 591.817 573.063 590.979 573.062 590.106V579.125C573.062 578.693 573.125 578.264 573.249 577.864C573.373 577.464 573.555 577.101 573.784 576.795C574.014 576.489 574.286 576.246 574.585 576.081C574.885 575.915 575.206 575.831 575.531 575.831H641.356C642.01 575.834 642.637 576.182 643.1 576.799C643.562 577.416 643.823 578.252 643.825 579.125V579.125Z" fill="#F2F2F2"/>
<path id="Vector_4" d="M636.493 595.706H581.364V599H636.493V595.706Z" fill="#E6E6E6"/>
<path id="Vector_5" d="M636.419 644.18C617.972 654.367 599.323 654.48 580.468 644.18V620.972C598.62 612.836 618.267 612.836 636.419 620.972V644.18Z" fill="#E6E6E6"/>
<path id="Vector_6" d="M343.725 254.415L283.092 258.053C283.092 258.053 288.153 299.898 255.351 303.877C222.549 307.857 192.728 295.918 180.8 325.765C168.872 355.611 174.013 461.887 174.013 461.887C174.013 461.887 196.379 569.334 214.271 585.252C232.163 601.171 388.719 579.283 388.719 579.283L454.239 468.88L452.02 383.737C450.861 339.276 420.442 305.894 387.681 314.122C387.037 314.284 386.389 314.458 385.737 314.644C385.737 314.644 378.539 307.465 358.792 294.289C346.716 286.231 343.725 254.415 343.725 254.415Z" fill="#CACACA"/>
<path id="Vector_7" d="M212.111 301.888C212.111 301.888 226.522 336.782 220.558 386.526C214.594 436.27 239.618 541.478 239.618 541.478L257.51 535.508C257.51 535.508 245.582 432.04 248.564 408.163C251.546 384.286 252.369 313.826 237.459 301.888C222.549 289.949 212.111 301.888 212.111 301.888Z" fill="#2F2E41"/>
<path id="Vector_8" d="M384.688 320.184L390.955 540.483L402.884 550.431C402.884 550.431 420.03 308.675 411.084 308.675H392.881C391.804 308.675 390.737 308.958 389.742 309.508C388.746 310.058 387.842 310.865 387.08 311.881C386.319 312.898 385.714 314.105 385.302 315.433C384.89 316.761 384.677 318.185 384.677 319.623C384.677 319.81 384.681 319.997 384.688 320.184Z" fill="#2F2E41"/>
<path id="Vector_9" d="M247.818 536.503C251.936 536.503 255.274 532.049 255.274 526.554C255.274 521.06 251.936 516.605 247.818 516.605C243.701 516.605 240.363 521.06 240.363 526.554C240.363 532.049 243.701 536.503 247.818 536.503Z" fill="#6C63FF"/>
<path id="Vector_10" d="M396.92 546.452C401.037 546.452 404.375 541.998 404.375 536.503C404.375 531.008 401.037 526.554 396.92 526.554C392.802 526.554 389.464 531.008 389.464 536.503C389.464 541.998 392.802 546.452 396.92 546.452Z" fill="#6C63FF"/>
<g id="Head">
<path id="Vector_11" d="M371.487 274.933C388.027 274.933 401.435 257.04 401.435 234.969C401.435 212.897 388.027 195.004 371.487 195.004C354.948 195.004 341.54 212.897 341.54 234.969C341.54 257.04 354.948 274.933 371.487 274.933Z" fill="#2F2E41"/>
<path id="Vector_12" d="M379.831 196.104C385.013 196.105 390.107 197.901 394.614 201.315C399.121 204.73 402.887 209.647 405.544 215.586C408.201 221.525 409.657 228.282 409.771 235.196C409.885 242.111 408.652 248.947 406.193 255.036C408.79 250.7 410.681 245.691 411.746 240.327C412.812 234.962 413.028 229.361 412.382 223.879C411.735 218.396 410.24 213.154 407.991 208.486C405.743 203.817 402.79 199.825 399.322 196.764C395.853 193.703 391.945 191.639 387.845 190.705C383.746 189.771 379.546 189.987 375.513 191.338C371.48 192.69 367.702 195.148 364.42 198.556C361.137 201.964 358.423 206.247 356.45 211.132C359.25 206.442 362.806 202.655 366.854 200.053C370.902 197.451 375.338 196.101 379.831 196.104V196.104Z" fill="#2F2E41"/>
<path id="Vector_13" d="M315.527 234.884C364.111 234.884 403.497 182.324 403.497 117.488C403.497 52.6515 364.111 0.0914307 315.527 0.0914307C266.943 0.0914307 227.557 52.6515 227.557 117.488C227.557 182.324 266.943 234.884 315.527 234.884Z" fill="#2F2E41"/>
<path id="Vector_14" d="M246.485 44.6492C261.643 21.8997 282.831 7.8992 305.578 5.60259C328.324 3.30598 350.85 12.8929 368.4 32.3401C367.68 31.4275 366.969 30.5076 366.221 29.6208C348.782 8.95012 325.906 -1.63218 302.622 0.200664C279.338 2.03351 257.553 16.1315 242.056 39.3947C226.559 62.658 218.619 93.1821 219.983 124.256C221.346 155.329 231.901 184.408 249.327 205.099C250.074 205.985 250.842 206.821 251.605 207.667C235.077 186.686 225.305 157.955 224.349 127.54C223.394 97.1242 231.331 67.4031 246.485 44.6492Z" fill="#2F2E41"/>
<path id="Vector_15" d="M314.781 233.889C346.073 233.889 371.44 200.037 371.44 158.278C371.44 116.519 346.073 82.6668 314.781 82.6668C283.49 82.6668 258.123 116.519 258.123 158.278C258.123 200.037 283.49 233.889 314.781 233.889Z" fill="#FFB8B8"/>
<path id="Vector_16" d="M266.323 63.7632V139.374H279.445L296.144 115.497L293.908 139.374H351.907L348.329 115.497L355.486 139.374H364.73V63.7632H266.323Z" fill="#2F2E41"/>
<path id="Vector_17" d="M257.377 153.303C259.848 153.303 261.85 148.404 261.85 142.36C261.85 136.316 259.848 131.416 257.377 131.416C254.907 131.416 252.904 136.316 252.904 142.36C252.904 148.404 254.907 153.303 257.377 153.303Z" fill="#FFB8B8"/>
<path id="Vector_18" d="M372.185 153.303C374.656 153.303 376.658 148.404 376.658 142.36C376.658 136.316 374.656 131.416 372.185 131.416C369.715 131.416 367.712 136.316 367.712 142.36C367.712 148.404 369.715 153.303 372.185 153.303Z" fill="#FFB8B8"/>
</g>
<path id="Vector_19" d="M496.285 668.11V674.775C496.288 676.604 496.034 678.418 495.536 680.123C495.315 680.882 495.048 681.617 494.738 682.319C493.757 684.515 492.366 686.334 490.7 687.597C489.034 688.86 487.15 689.523 485.234 689.522H117.804C115.888 689.523 114.005 688.86 112.339 687.597C110.673 686.334 109.282 684.515 108.301 682.319C107.991 681.617 107.724 680.882 107.503 680.123C107.005 678.418 106.751 676.604 106.754 674.775V668.11C106.754 666.174 107.039 664.257 107.594 662.468C108.149 660.679 108.962 659.053 109.988 657.684C111.013 656.314 112.231 655.228 113.571 654.487C114.911 653.745 116.348 653.363 117.799 653.363H138.984V650.255C138.984 650.175 138.996 650.095 139.019 650.02C139.042 649.946 139.075 649.878 139.118 649.821C139.161 649.764 139.211 649.719 139.267 649.688C139.323 649.657 139.383 649.641 139.443 649.641H150.495C150.617 649.64 150.734 649.705 150.821 649.82C150.907 649.935 150.956 650.091 150.956 650.253V653.363H157.859V650.255C157.859 650.175 157.871 650.095 157.894 650.02C157.917 649.946 157.951 649.878 157.993 649.821C158.036 649.764 158.087 649.719 158.143 649.688C158.198 649.657 158.258 649.641 158.319 649.641H169.37C169.492 649.64 169.61 649.705 169.696 649.82C169.782 649.935 169.831 650.091 169.831 650.253V653.363H176.743V650.255C176.743 650.175 176.755 650.095 176.778 650.02C176.801 649.946 176.835 649.878 176.877 649.821C176.92 649.764 176.97 649.719 177.026 649.688C177.082 649.657 177.142 649.641 177.202 649.641H188.254C188.376 649.64 188.493 649.705 188.58 649.82C188.666 649.935 188.715 650.091 188.715 650.253V653.363H195.618V650.255C195.618 650.175 195.63 650.095 195.653 650.02C195.676 649.946 195.71 649.878 195.753 649.821C195.795 649.764 195.846 649.719 195.902 649.688C195.957 649.657 196.017 649.641 196.078 649.641H207.13C207.252 649.64 207.369 649.705 207.455 649.82C207.542 649.935 207.59 650.091 207.59 650.253V653.363H214.494V650.255C214.494 650.175 214.506 650.095 214.529 650.021C214.552 649.946 214.585 649.878 214.628 649.821C214.671 649.764 214.721 649.719 214.777 649.688C214.833 649.657 214.893 649.641 214.953 649.641H226.005C226.127 649.64 226.244 649.705 226.331 649.82C226.417 649.935 226.466 650.091 226.466 650.253V653.363H233.378V650.256C233.377 650.175 233.389 650.095 233.412 650.021C233.435 649.946 233.469 649.878 233.512 649.821C233.554 649.764 233.605 649.719 233.661 649.688C233.717 649.657 233.776 649.641 233.837 649.641H244.889C245.011 649.64 245.128 649.705 245.214 649.82C245.301 649.935 245.349 650.091 245.35 650.254V653.363H252.253V650.256C252.253 650.175 252.265 650.095 252.288 650.021C252.311 649.946 252.345 649.878 252.387 649.821C252.43 649.764 252.481 649.719 252.536 649.688C252.592 649.657 252.652 649.641 252.712 649.641H339.274C339.335 649.641 339.395 649.656 339.451 649.687C339.506 649.718 339.557 649.763 339.6 649.82C339.643 649.877 339.677 649.944 339.7 650.019C339.723 650.093 339.735 650.173 339.735 650.254V653.363H346.647V650.256C346.647 650.175 346.659 650.095 346.682 650.021C346.705 649.946 346.738 649.878 346.781 649.821C346.824 649.764 346.874 649.719 346.93 649.688C346.986 649.657 347.046 649.641 347.106 649.641H358.158C358.28 649.642 358.396 649.707 358.483 649.822C358.569 649.937 358.618 650.093 358.619 650.256V653.363H365.522V650.256C365.522 650.175 365.534 650.095 365.557 650.021C365.58 649.946 365.614 649.878 365.657 649.821C365.699 649.764 365.75 649.719 365.806 649.688C365.861 649.657 365.921 649.641 365.982 649.641H377.034C377.094 649.641 377.154 649.656 377.21 649.687C377.266 649.718 377.316 649.763 377.359 649.82C377.402 649.877 377.436 649.944 377.459 650.019C377.482 650.093 377.494 650.173 377.494 650.254V653.363H384.398V650.256C384.398 650.175 384.41 650.095 384.433 650.021C384.456 649.946 384.489 649.878 384.532 649.821C384.575 649.764 384.625 649.719 384.681 649.688C384.737 649.657 384.797 649.641 384.857 649.641H395.909C395.969 649.641 396.029 649.656 396.085 649.687C396.141 649.718 396.192 649.763 396.235 649.82C396.277 649.877 396.311 649.944 396.334 650.019C396.358 650.093 396.37 650.173 396.37 650.254V653.363H403.281V650.256C403.281 650.175 403.293 650.095 403.316 650.021C403.339 649.946 403.373 649.878 403.416 649.821C403.458 649.764 403.509 649.719 403.565 649.688C403.621 649.657 403.68 649.641 403.741 649.641H414.793C414.914 649.643 415.029 649.708 415.114 649.824C415.199 649.939 415.246 650.094 415.245 650.256V653.363H422.157V650.256C422.157 650.175 422.169 650.095 422.192 650.021C422.215 649.946 422.249 649.878 422.291 649.821C422.334 649.764 422.384 649.719 422.44 649.688C422.496 649.657 422.556 649.641 422.616 649.641H433.668C433.729 649.641 433.788 649.656 433.844 649.687C433.9 649.718 433.951 649.763 433.994 649.82C434.036 649.877 434.07 649.944 434.094 650.019C434.117 650.093 434.129 650.173 434.129 650.254V653.363H441.032V650.256C441.032 650.175 441.044 650.095 441.067 650.021C441.09 649.946 441.124 649.878 441.167 649.821C441.209 649.764 441.26 649.719 441.316 649.688C441.371 649.657 441.431 649.641 441.492 649.641H452.544C452.604 649.641 452.664 649.656 452.72 649.687C452.776 649.718 452.826 649.763 452.869 649.82C452.912 649.877 452.946 649.944 452.969 650.019C452.992 650.093 453.004 650.173 453.004 650.254V653.363H485.234C488.164 653.362 490.975 654.914 493.047 657.678C495.119 660.443 496.284 664.192 496.285 668.102L496.285 668.11Z" fill="#3F3D56"/>
<path id="Vector_20" d="M799 687.804H0V690H799V687.804Z" fill="#3F3D56"/>
<path id="Vector_21" d="M466.698 387.408H130.129C128.913 387.408 127.708 387.728 126.584 388.349C125.46 388.971 124.439 389.881 123.579 391.029C122.719 392.177 122.036 393.54 121.571 395.04C121.105 396.54 120.866 398.148 120.866 399.771V650.031C120.866 653.31 121.842 656.455 123.579 658.773C125.316 661.091 127.672 662.394 130.129 662.394H466.698C469.155 662.394 471.511 661.091 473.249 658.773C474.986 656.455 475.962 653.31 475.962 650.031V399.771C475.962 396.492 474.986 393.348 473.249 391.029C471.511 388.711 469.155 387.408 466.698 387.408Z" fill="#3F3D56"/>
<path id="Vector_22" d="M298.683 502.232C310.044 502.232 319.254 489.941 319.254 474.78C319.254 459.619 310.044 447.329 298.683 447.329C287.323 447.329 278.113 459.619 278.113 474.78C278.113 489.941 287.323 502.232 298.683 502.232Z" fill="#6C63FF"/>
<path id="VectorAnima" d="M426.025 293.422L529.87 153.746H578.896V151.55H529.183L528.942 151.876L424.855 291.878L426.025 293.422Z" fill="#3F3D56"/>
<g id="Lines">
<path id="Vector_23" d="M759.093 96.4011H638.777V110.709H759.093V96.4011Z" fill="#6C63FF"/>
<path id="Vector_24" d="M759.093 144.093H638.777V158.4H759.093V144.093Z" fill="#6C63FF"/>
<path id="Vector_25" d="M759.093 191.785H638.777V206.092H759.093V191.785Z" fill="#6C63FF"/>
</g>
<g id="Boxes">
<path id="Vector_26" d="M624.114 119.756H598.643V85.7645H624.114V119.756ZM600.289 117.559H622.468V87.9606H600.289L600.289 117.559Z" fill="#3F3D56"/>
<path id="Vector_27" d="M624.114 167.447H598.643V133.457H624.114V167.447ZM600.289 165.251H622.468V135.653H600.289L600.289 165.251Z" fill="#3F3D56"/>
<path id="Vector_28" d="M624.114 215.139H598.643V181.148H624.114V215.139ZM600.289 212.943H622.468V183.344H600.289L600.289 212.943Z" fill="#3F3D56"/>
</g>
</g>
<defs>
<clipPath id="clip0_1:49">
<rect width="799" height="690" fill="white"/>
</clipPath>
</defs>
</svg>
