<svg width="939" height="477" viewBox="0 0 939 477" fill="none" xmlns="http://www.w3.org/2000/svg">
<g id="undraw_mornings_re_cofi 1">
<path id="Path 2362" d="M758.051 477H188.692C182.872 476.994 178.156 473.235 178.149 468.597V80.5341C178.156 75.8947 182.872 72.1356 188.692 72.1307H758.052C763.872 72.1364 768.589 75.8955 768.595 80.5349V468.599C768.588 473.24 763.872 477 758.051 477ZM188.692 75.4918C185.2 75.4918 182.369 77.7502 182.366 80.5341V468.599C182.366 471.382 185.2 473.638 188.693 473.641H758.053C761.545 473.641 764.375 471.382 764.379 468.599V80.5341C764.379 77.751 761.545 75.495 758.053 75.4918H188.692Z" fill="#E6E6E6"/>
<path id="Path 2484" d="M422.865 229.755L574.723 201.154L578.02 279.631L566.132 368.53L574.723 474.549H410.948L415.21 351.541C415.21 351.541 378.667 302.976 400.195 254.022L422.865 229.755Z" fill="url(#paint0_linear_2:6)"/>
<path id="Path 2485" d="M757.577 392.372C758.164 389.565 758.076 386.677 757.319 383.911C756.562 381.144 755.155 378.567 753.196 376.36C751.237 374.153 748.775 372.371 745.983 371.138C743.191 369.905 740.136 369.252 737.034 369.225L607.338 237.816L578.853 271.353L715.296 389.975C715.57 394.776 717.747 399.31 721.415 402.719C725.084 406.127 729.989 408.173 735.202 408.468C740.414 408.763 745.571 407.287 749.695 404.32C753.82 401.353 756.625 397.1 757.579 392.369L757.577 392.372Z" fill="#FEB8B8"/>
<path id="Path 2486" d="M593.784 299.916C592.299 299.961 590.821 299.664 589.453 299.047C588.085 298.431 586.859 297.508 585.857 296.342L550.858 255.632C547.927 253.111 545.491 250.002 543.691 246.482C541.89 242.963 540.76 239.102 540.365 235.12C539.97 231.138 540.317 227.113 541.387 223.274C542.457 219.436 544.229 215.86 546.602 212.75C548.974 209.64 551.901 207.056 555.215 205.148C558.529 203.239 562.165 202.043 565.915 201.626C569.666 201.21 573.457 201.582 577.073 202.721C580.69 203.86 584.06 205.744 586.991 208.266L631.74 236.547C633.017 237.354 634.116 238.443 634.961 239.742C635.806 241.04 636.378 242.516 636.638 244.069C636.898 245.623 636.839 247.217 636.466 248.744C636.092 250.27 635.414 251.693 634.475 252.916L601.5 295.881C600.562 297.105 599.387 298.098 598.054 298.794C596.721 299.491 595.262 299.873 593.776 299.916L593.784 299.916Z" fill="#6C63FF"/>
<path id="Path 2487" d="M184.753 417.385C184.525 414.02 185.084 410.65 186.389 407.511C187.693 404.371 189.713 401.54 192.306 399.215C194.898 396.891 198 395.13 201.393 394.057C204.786 392.984 208.387 392.625 211.943 393.004L381.255 256.331L408.562 299.38L233.548 420.188C232.476 425.773 229.265 430.794 224.524 434.299C219.784 437.804 213.843 439.549 207.828 439.203C201.812 438.857 196.141 436.445 191.888 432.423C187.635 428.401 185.097 423.05 184.753 417.382V417.385Z" fill="#FEB8B8"/>
<path id="Path 2488" d="M347.141 269.009C347.344 267.535 347.882 266.12 348.718 264.86C349.554 263.6 350.669 262.525 351.987 261.708L398.002 233.168C400.962 230.627 404.425 228.66 408.193 227.38C411.961 226.1 415.959 225.532 419.96 225.709C423.961 225.885 427.885 226.802 431.51 228.408C435.134 230.013 438.387 232.276 441.083 235.066C443.779 237.856 445.864 241.119 447.22 244.669C448.577 248.219 449.177 251.985 448.987 255.754C448.798 259.522 447.821 263.218 446.115 266.631C444.408 270.044 442.003 273.107 439.039 275.644C438.953 275.718 438.866 275.792 438.779 275.865L403.417 315.884C402.408 317.026 401.149 317.95 399.727 318.593C398.304 319.235 396.752 319.581 395.175 319.608C393.597 319.634 392.033 319.34 390.587 318.745C389.141 318.151 387.849 317.27 386.797 316.162L349.841 277.235C348.789 276.128 348.003 274.82 347.536 273.4C347.07 271.98 346.934 270.482 347.138 269.009H347.141Z" fill="#6C63FF"/>
<g id="My head">
<path id="Ellipse 85" d="M493.435 161.882C527.577 161.882 555.256 135.811 555.256 103.651C555.256 71.4908 527.577 45.4198 493.435 45.4198C459.292 45.4198 431.614 71.4908 431.614 103.651C431.614 135.811 459.292 161.882 493.435 161.882Z" fill="#3F3D56"/>
<path id="Ellipse 491" d="M487.972 192.444C518.885 192.444 543.945 168.84 543.945 139.722C543.945 110.605 518.885 87 487.972 87C457.06 87 432 110.605 432 139.722C432 168.84 457.06 192.444 487.972 192.444Z" fill="#FEB8B8"/>
<path id="Path 574" d="M525.704 0C521.032 6.2848 514.107 10.7685 506.204 12.626C492.569 16.0655 506.093 35.3645 506.093 35.3645C506.093 35.3645 501.175 28.3465 508.268 20.9141C515.361 13.4818 526.777 8.40096 525.704 0Z" fill="#3F3D56"/>
<path id="Ellipse 87" d="M503.677 56.2222C513.192 56.2222 520.905 48.9566 520.905 39.994C520.905 31.0315 513.192 23.7659 503.677 23.7659C494.162 23.7659 486.448 31.0315 486.448 39.994C486.448 48.9566 494.162 56.2222 503.677 56.2222Z" fill="#3F3D56"/>
<path id="Path 575" d="M529.421 53.5968C515.376 48.5928 491.99 46.0557 479.959 47.7934L481.608 36.4442C493.175 42.0751 516.455 44.7217 531.07 42.2475L529.421 53.5968Z" fill="#6C63FF"/>
<path id="Path 576" d="M496.971 55.7195C496.971 55.7195 479.368 83.2977 438.437 93.6219C397.505 103.946 438.103 161.883 438.103 161.883C438.103 161.883 423.34 140.815 444.634 118.504C465.927 96.1917 500.192 80.9379 496.971 55.7195Z" fill="#3F3D56"/>
<path id="Path 577" d="M503.641 55.9819C503.641 55.9819 520.551 93.8622 539.116 97.4439C557.681 101.026 556.273 160.88 527.241 169.856C527.241 169.856 548.414 134.766 530.315 111.233C512.216 87.7 500.79 69.0966 503.641 55.9819Z" fill="#3F3D56"/>
</g>
<path id="Rectangle 254" d="M939 474.55H0V476.185H939V474.55Z" fill="#E6E6E6"/>
<g id="Mug-left">
<path id="Vector" d="M163.901 435.698C163.901 433.649 163.473 431.621 162.64 429.728C161.808 427.835 160.588 426.115 159.05 424.666C157.512 423.217 155.687 422.068 153.677 421.284C151.668 420.5 149.514 420.096 147.339 420.096H147.338V408.095H83.6304V467.486C83.6304 469.559 84.5048 471.547 86.0612 473.014C87.6176 474.48 89.7285 475.303 91.9296 475.303H139.039C141.24 475.303 143.351 474.48 144.907 473.014C146.463 471.547 147.338 469.559 147.338 467.486V451.3C151.731 451.3 155.944 449.656 159.05 446.73C162.156 443.804 163.901 439.836 163.901 435.698V435.698ZM147.338 445.298L147.338 445.298V426.096C150.041 426.096 152.634 427.107 154.545 428.908C156.457 430.708 157.531 433.15 157.531 435.697C157.531 438.243 156.457 440.685 154.546 442.486C152.634 444.287 150.041 445.298 147.338 445.298V445.298Z" fill="#CC8080"/>
</g>
<g id="plant-right">
<path id="Path 776" d="M844.736 418.263C857.211 430.872 857.856 449.405 857.856 449.405C857.856 449.405 838.275 447.494 825.8 434.885C813.325 422.276 812.68 403.743 812.68 403.743C812.68 403.743 832.261 405.654 844.736 418.263Z" fill="#58C715"/>
<path id="Path 777" d="M884.008 437.944C870.622 449.695 850.947 450.302 850.947 450.302C850.947 450.302 852.976 431.858 866.362 420.108C879.748 408.357 899.423 407.75 899.423 407.75C899.423 407.75 897.395 426.194 884.008 437.944Z" fill="#73D750"/>
<path id="Path 778" d="M880.681 475.369H831.445C830.501 475.37 829.575 475.12 828.774 474.648C827.973 474.176 827.329 473.501 826.917 472.701L816.197 451.943C815.823 451.22 815.65 450.419 815.695 449.616C815.74 448.813 816.001 448.033 816.454 447.351C816.907 446.669 817.537 446.107 818.284 445.718C819.032 445.328 819.872 445.124 820.726 445.125H891.402C892.256 445.124 893.096 445.328 893.843 445.718C894.59 446.107 895.22 446.669 895.673 447.351C896.126 448.033 896.388 448.813 896.433 449.616C896.478 450.419 896.305 451.22 895.93 451.943L885.211 472.7C884.798 473.5 884.154 474.175 883.353 474.647C882.553 475.119 881.627 475.369 880.682 475.368L880.681 475.369Z" fill="#3A30AF"/>
</g>
</g>
<defs>
<linearGradient id="paint0_linear_2:6" x1="485.713" y1="201.154" x2="485.713" y2="474.549" gradientUnits="userSpaceOnUse">
<stop stop-color="#CDFF63"/>
<stop offset="1" stop-color="#3C5F62" stop-opacity="0.99"/>
</linearGradient>
</defs>
</svg>
